<?xml version="1.0" encoding="UTF-8" standalone="no"?>
<!DOCTYPE svg PUBLIC "-//W3C//DTD SVG 1.1//EN"
 "http://www.w3.org/Graphics/SVG/1.1/DTD/svg11.dtd">
<!-- Generated by graphviz version 2.26.3 (20100126.1600)
 -->
<!-- Title: G Pages: 1 -->
<svg width="383pt" height="512pt"
 viewBox="0.00 0.00 383.00 512.00" xmlns="http://www.w3.org/2000/svg" xmlns:xlink="http://www.w3.org/1999/xlink">
<g id="graph1" class="graph" transform="scale(1 1) rotate(0) translate(4 508)">
<title>G</title>
<polygon fill="white" stroke="white" points="-4,5 -4,-508 380,-508 380,5 -4,5"/>
<g id="graph2" class="cluster"><title>cluster_global</title>
<polyline fill="none" stroke="gray" points="20,-44 355,-44 "/>
<path fill="none" stroke="gray" d="M355,-44C361,-44 367,-50 367,-56"/>
<polyline fill="none" stroke="gray" points="367,-56 367,-484 "/>
<path fill="none" stroke="gray" d="M367,-484C367,-490 361,-496 355,-496"/>
<polyline fill="none" stroke="gray" points="355,-496 20,-496 "/>
<path fill="none" stroke="gray" d="M20,-496C14,-496 8,-490 8,-484"/>
<polyline fill="none" stroke="gray" points="8,-484 8,-56 "/>
<path fill="none" stroke="gray" d="M8,-56C8,-50 14,-44 20,-44"/>
<text text-anchor="middle" x="187.5" y="-482.1" font-family="Times Roman,serif" font-size="11.00" fill="gray">global</text>
</g>
<!-- \\SagNativeHTTPAdapter -->
<g id="node2" class="node"><title>\\SagNativeHTTPAdapter</title>
<a xlink:href="httpAdapters.SagNativeHTTPAdapter.html" xlink:title="SagNativeHTTPAdapter" target="_parent">
<polygon fill="none" stroke="black" points="359,-466 207,-466 207,-430 359,-430 359,-466"/>
<text text-anchor="middle" x="283" y="-445.1" font-family="Courier,monospace" font-size="11.00">SagNativeHTTPAdapter</text>
</a>
</g>
<!-- \\SagHTTPAdapter -->
<g id="node3" class="node"><title>\\SagHTTPAdapter</title>
<a xlink:href="httpAdapters.SagHTTPAdapter.html" xlink:title="«abstract»&lt;br/&gt;SagHTTPAdapter" target="_parent">
<polygon fill="none" stroke="black" points="128,-439 16,-439 16,-403 128,-403 128,-439"/>
<text text-anchor="start" x="38" y="-426.433" font-family="Courier,monospace" font-size="11.00">«abstract»</text>
<text text-anchor="start" x="24.5" y="-413.233" font-family="Courier,monospace" font-size="11.00">SagHTTPAdapter</text>
</a>
</g>
<!-- \\SagNativeHTTPAdapter&#45;&gt;\\SagHTTPAdapter -->
<g id="edge3" class="edge"><title>\\SagNativeHTTPAdapter&#45;&gt;\\SagHTTPAdapter</title>
<path fill="none" stroke="black" d="M206.824,-438.252C184.405,-435.384 160.067,-432.269 138.318,-429.486"/>
<polygon fill="none" stroke="black" points="138.561,-425.989 128.198,-428.191 137.673,-432.932 138.561,-425.989"/>
</g>
<!-- \\SagCURLHTTPAdapter -->
<g id="node4" class="node"><title>\\SagCURLHTTPAdapter</title>
<a xlink:href="httpAdapters.SagCURLHTTPAdapter.html" xlink:title="SagCURLHTTPAdapter" target="_parent">
<polygon fill="none" stroke="black" points="352,-412 214,-412 214,-376 352,-376 352,-412"/>
<text text-anchor="middle" x="283" y="-391.1" font-family="Courier,monospace" font-size="11.00">SagCURLHTTPAdapter</text>
</a>
</g>
<!-- \\SagCURLHTTPAdapter&#45;&gt;\\SagHTTPAdapter -->
<g id="edge5" class="edge"><title>\\SagCURLHTTPAdapter&#45;&gt;\\SagHTTPAdapter</title>
<path fill="none" stroke="black" d="M213.911,-402.841C189.618,-405.949 162.389,-409.434 138.328,-412.513"/>
<polygon fill="none" stroke="black" points="137.703,-409.064 128.228,-413.805 138.591,-416.007 137.703,-409.064"/>
</g>
<!-- \\SagCouchException -->
<g id="node5" class="node"><title>\\SagCouchException</title>
<a xlink:href="SagCouchException.html" xlink:title="SagCouchException" target="_parent">
<polygon fill="none" stroke="black" points="348,-250 218,-250 218,-214 348,-214 348,-250"/>
<text text-anchor="middle" x="283" y="-229.1" font-family="Courier,monospace" font-size="11.00">SagCouchException</text>
</a>
</g>
<!-- \\Exception -->
<g id="node15" class="node"><title>\\Exception</title>
<ellipse fill="none" stroke="black" cx="72" cy="-18" rx="62.9325" ry="18.3848"/>
<text text-anchor="middle" x="72" y="-14.4" font-family="Times Roman,serif" font-size="14.00" fill="gray">\Exception</text>
</g>
<!-- \\SagCouchException&#45;&gt;\\Exception -->
<g id="edge7" class="edge"><title>\\SagCouchException&#45;&gt;\\Exception</title>
<path fill="none" stroke="black" d="M218.888,-213.848C214.61,-211.275 210.585,-208.342 207,-205 148.476,-150.441 193.671,-94.4012 135,-40 133.067,-38.208 130.981,-36.5607 128.783,-35.0466"/>
<polygon fill="none" stroke="black" points="130.246,-31.8485 119.842,-29.8425 126.724,-37.8982 130.246,-31.8485"/>
</g>
<!-- \\SagFileCache -->
<g id="node6" class="node"><title>\\SagFileCache</title>
<a xlink:href="SagFileCache.html" xlink:title="SagFileCache" target="_parent">
<polygon fill="none" stroke="black" points="332,-358 234,-358 234,-322 332,-322 332,-358"/>
<text text-anchor="middle" x="283" y="-337.1" font-family="Courier,monospace" font-size="11.00">SagFileCache</text>
</a>
</g>
<!-- \\SagCache -->
<g id="node10" class="node"><title>\\SagCache</title>
<a xlink:href="SagCache.html" xlink:title="«abstract»&lt;br/&gt;SagCache" target="_parent">
<polygon fill="none" stroke="black" points="114,-331 30,-331 30,-295 114,-295 114,-331"/>
<text text-anchor="start" x="38" y="-318.433" font-family="Courier,monospace" font-size="11.00">«abstract»</text>
<text text-anchor="start" x="44.5" y="-305.233" font-family="Courier,monospace" font-size="11.00">SagCache</text>
</a>
</g>
<!-- \\SagFileCache&#45;&gt;\\SagCache -->
<g id="edge9" class="edge"><title>\\SagFileCache&#45;&gt;\\SagCache</title>
<path fill="none" stroke="black" d="M233.796,-333.704C201.13,-329.524 158.28,-324.041 124.885,-319.767"/>
<polygon fill="none" stroke="black" points="125.209,-316.28 114.846,-318.483 124.321,-323.224 125.209,-316.28"/>
</g>
<!-- \\SagMemoryCache -->
<g id="node7" class="node"><title>\\SagMemoryCache</title>
<a xlink:href="SagMemoryCache.html" xlink:title="SagMemoryCache" target="_parent">
<polygon fill="none" stroke="black" points="338,-304 228,-304 228,-268 338,-268 338,-304"/>
<text text-anchor="middle" x="283" y="-283.1" font-family="Courier,monospace" font-size="11.00">SagMemoryCache</text>
</a>
</g>
<!-- \\SagMemoryCache&#45;&gt;\\SagCache -->
<g id="edge11" class="edge"><title>\\SagMemoryCache&#45;&gt;\\SagCache</title>
<path fill="none" stroke="black" d="M227.286,-293.129C195.584,-297.186 156.1,-302.238 124.88,-306.233"/>
<polygon fill="none" stroke="black" points="124.107,-302.804 114.632,-307.545 124.995,-309.747 124.107,-302.804"/>
</g>
<!-- \\Sag -->
<g id="node8" class="node"><title>\\Sag</title>
<a xlink:href="Sag.html" xlink:title="Sag" target="_parent">
<polygon fill="none" stroke="black" points="310,-196 256,-196 256,-160 310,-160 310,-196"/>
<text text-anchor="middle" x="283" y="-175.1" font-family="Courier,monospace" font-size="11.00">Sag</text>
</a>
</g>
<!-- \\SagUserUtils -->
<g id="node9" class="node"><title>\\SagUserUtils</title>
<a xlink:href="SagUserUtils.html" xlink:title="SagUserUtils" target="_parent">
<polygon fill="none" stroke="black" points="332,-142 234,-142 234,-106 332,-106 332,-142"/>
<text text-anchor="middle" x="283" y="-121.1" font-family="Courier,monospace" font-size="11.00">SagUserUtils</text>
</a>
</g>
<!-- \\SagException -->
<g id="node11" class="node"><title>\\SagException</title>
<a xlink:href="SagException.html" xlink:title="SagException" target="_parent">
<polygon fill="none" stroke="black" points="332,-88 234,-88 234,-52 332,-52 332,-88"/>
<text text-anchor="middle" x="283" y="-67.1" font-family="Courier,monospace" font-size="11.00">SagException</text>
</a>
</g>
<!-- \\SagException&#45;&gt;\\Exception -->
<g id="edge13" class="edge"><title>\\SagException&#45;&gt;\\Exception</title>
<path fill="none" stroke="black" d="M233.796,-57.8739C202.675,-50.2043 162.311,-40.2567 129.685,-32.2162"/>
<polygon fill="none" stroke="black" points="130.374,-28.7813 119.827,-29.7867 128.699,-35.5779 130.374,-28.7813"/>
</g>
</g>
</svg>
